# xmcd
#
# Track frame offsets: 
#        150
#        13681
#        32857
#        56805
#        72692
#        89393
#        112146
#        124986
#        135170
#
# Disc length: 2064 seconds
#
# Revision: 0
# Processed by: cddbd v1.5.2PL0 Copyright (c) Steve Scherf et al.
# Submitted via: ExactAudioCopy v1.0b4
#
DISCID=84080e09
DTITLE=Riot And The Blues Devils - The Roxboro Sessions
DYEAR=2018
DGENRE=blues
TTITLE0=Saturday Night Widow
TTITLE1=How Many Times
TTITLE2=I Miss Your Touch
TTITLE3=JD Kisses
TTITLE4=Walls Are Closing In
TTITLE5=Do I Have To Beg
TTITLE6=Howling At The Moon
TTITLE7=Intrumental #1
TTITLE8=I Miss Your Touch (Acoustic Version)
EXTD=
EXTT0=
EXTT1=
EXTT2=
EXTT3=
EXTT4=
EXTT5=
EXTT6=
EXTT7=
EXTT8=
PLAYORDER=
